<mxfile host="Electron" modified="2024-03-09T08:10:07.898Z" agent="Mozilla/5.0 (Windows NT 10.0; Win64; x64) AppleWebKit/537.36 (KHTML, like Gecko) draw.io/23.1.5 Chrome/120.0.6099.109 Electron/28.1.0 Safari/537.36" etag="AWw0jTm7Aumjp1yhJ_cu" version="23.1.5" type="device">
  <diagram name="第 1 页" id="bLYwYWTBMLvKTKeK4aJ8">
    <mxGraphModel dx="3703" dy="1206" grid="1" gridSize="10" guides="1" tooltips="1" connect="1" arrows="1" fold="1" page="1" pageScale="1" pageWidth="827" pageHeight="1169" math="0" shadow="0">
      <root>
        <mxCell id="0" />
        <mxCell id="1" parent="0" />
        <mxCell id="LbzveFRJtcq-ufwjZvth-1" value="" style="rounded=1;whiteSpace=wrap;html=1;" vertex="1" parent="1">
          <mxGeometry x="-800" y="40" width="450" height="290" as="geometry" />
        </mxCell>
        <mxCell id="LbzveFRJtcq-ufwjZvth-2" value="&lt;b&gt;&lt;font style=&quot;font-size: 21px;&quot;&gt;用户功能&lt;/font&gt;&lt;/b&gt;" style="text;html=1;align=center;verticalAlign=middle;whiteSpace=wrap;rounded=0;fontSize=16;" vertex="1" parent="1">
          <mxGeometry x="-640" y="60" width="110" height="30" as="geometry" />
        </mxCell>
        <mxCell id="LbzveFRJtcq-ufwjZvth-3" value="审核" style="rounded=1;whiteSpace=wrap;html=1;fontSize=16;" vertex="1" parent="1">
          <mxGeometry x="-740" y="100" width="120" height="60" as="geometry" />
        </mxCell>
        <mxCell id="LbzveFRJtcq-ufwjZvth-4" value="行动" style="rounded=1;whiteSpace=wrap;html=1;fontSize=16;" vertex="1" parent="1">
          <mxGeometry x="-530" y="100" width="120" height="60" as="geometry" />
        </mxCell>
        <mxCell id="LbzveFRJtcq-ufwjZvth-5" value="报告" style="rounded=1;whiteSpace=wrap;html=1;fontSize=16;" vertex="1" parent="1">
          <mxGeometry x="-740" y="180" width="120" height="60" as="geometry" />
        </mxCell>
        <mxCell id="LbzveFRJtcq-ufwjZvth-6" value="危险日志" style="rounded=1;whiteSpace=wrap;html=1;fontSize=16;" vertex="1" parent="1">
          <mxGeometry x="-530" y="180" width="120" height="60" as="geometry" />
        </mxCell>
        <mxCell id="LbzveFRJtcq-ufwjZvth-107" value="" style="rounded=0;whiteSpace=wrap;html=1;" vertex="1" parent="1">
          <mxGeometry x="-290" y="90" width="1050" height="400" as="geometry" />
        </mxCell>
        <mxCell id="LbzveFRJtcq-ufwjZvth-108" value="导航栏" style="rounded=0;whiteSpace=wrap;html=1;" vertex="1" parent="1">
          <mxGeometry x="-290" y="90" width="140" height="60" as="geometry" />
        </mxCell>
        <mxCell id="LbzveFRJtcq-ufwjZvth-109" value="审核栏" style="swimlane;fontStyle=0;childLayout=stackLayout;horizontal=1;startSize=26;fillColor=none;horizontalStack=0;resizeParent=1;resizeParentMax=0;resizeLast=0;collapsible=1;marginBottom=0;html=1;" vertex="1" parent="1">
          <mxGeometry x="-290" y="150" width="140" height="52" as="geometry">
            <mxRectangle x="-280" y="550" width="80" height="30" as="alternateBounds" />
          </mxGeometry>
        </mxCell>
        <mxCell id="LbzveFRJtcq-ufwjZvth-111" value="+列表视图" style="text;strokeColor=none;fillColor=none;align=left;verticalAlign=top;spacingLeft=4;spacingRight=4;overflow=hidden;rotatable=0;points=[[0,0.5],[1,0.5]];portConstraint=eastwest;whiteSpace=wrap;html=1;" vertex="1" parent="LbzveFRJtcq-ufwjZvth-109">
          <mxGeometry y="26" width="140" height="26" as="geometry" />
        </mxCell>
        <mxCell id="LbzveFRJtcq-ufwjZvth-112" value="行动栏" style="swimlane;fontStyle=0;childLayout=stackLayout;horizontal=1;startSize=26;fillColor=none;horizontalStack=0;resizeParent=1;resizeParentMax=0;resizeLast=0;collapsible=1;marginBottom=0;html=1;" vertex="1" parent="1">
          <mxGeometry x="-290" y="202" width="140" height="78" as="geometry" />
        </mxCell>
        <mxCell id="LbzveFRJtcq-ufwjZvth-113" value="+新发现" style="text;strokeColor=none;fillColor=none;align=left;verticalAlign=top;spacingLeft=4;spacingRight=4;overflow=hidden;rotatable=0;points=[[0,0.5],[1,0.5]];portConstraint=eastwest;whiteSpace=wrap;html=1;" vertex="1" parent="LbzveFRJtcq-ufwjZvth-112">
          <mxGeometry y="26" width="140" height="26" as="geometry" />
        </mxCell>
        <mxCell id="LbzveFRJtcq-ufwjZvth-114" value="+列表视图" style="text;strokeColor=none;fillColor=none;align=left;verticalAlign=top;spacingLeft=4;spacingRight=4;overflow=hidden;rotatable=0;points=[[0,0.5],[1,0.5]];portConstraint=eastwest;whiteSpace=wrap;html=1;" vertex="1" parent="LbzveFRJtcq-ufwjZvth-112">
          <mxGeometry y="52" width="140" height="26" as="geometry" />
        </mxCell>
        <mxCell id="LbzveFRJtcq-ufwjZvth-115" value="报告栏" style="swimlane;fontStyle=0;childLayout=stackLayout;horizontal=1;startSize=26;fillColor=none;horizontalStack=0;resizeParent=1;resizeParentMax=0;resizeLast=0;collapsible=1;marginBottom=0;html=1;" vertex="1" parent="1">
          <mxGeometry x="-290" y="280" width="140" height="78" as="geometry" />
        </mxCell>
        <mxCell id="LbzveFRJtcq-ufwjZvth-116" value="+新报告&lt;span style=&quot;white-space: pre;&quot;&gt;&#x9;&lt;/span&gt;" style="text;strokeColor=none;fillColor=none;align=left;verticalAlign=top;spacingLeft=4;spacingRight=4;overflow=hidden;rotatable=0;points=[[0,0.5],[1,0.5]];portConstraint=eastwest;whiteSpace=wrap;html=1;" vertex="1" parent="LbzveFRJtcq-ufwjZvth-115">
          <mxGeometry y="26" width="140" height="26" as="geometry" />
        </mxCell>
        <mxCell id="LbzveFRJtcq-ufwjZvth-117" value="+列表视图" style="text;strokeColor=none;fillColor=none;align=left;verticalAlign=top;spacingLeft=4;spacingRight=4;overflow=hidden;rotatable=0;points=[[0,0.5],[1,0.5]];portConstraint=eastwest;whiteSpace=wrap;html=1;" vertex="1" parent="LbzveFRJtcq-ufwjZvth-115">
          <mxGeometry y="52" width="140" height="26" as="geometry" />
        </mxCell>
        <mxCell id="LbzveFRJtcq-ufwjZvth-118" value="危险日志" style="swimlane;fontStyle=0;childLayout=stackLayout;horizontal=1;startSize=26;fillColor=none;horizontalStack=0;resizeParent=1;resizeParentMax=0;resizeLast=0;collapsible=1;marginBottom=0;html=1;" vertex="1" parent="1">
          <mxGeometry x="-290" y="358" width="140" height="78" as="geometry" />
        </mxCell>
        <mxCell id="LbzveFRJtcq-ufwjZvth-119" value="+新危害" style="text;strokeColor=none;fillColor=none;align=left;verticalAlign=top;spacingLeft=4;spacingRight=4;overflow=hidden;rotatable=0;points=[[0,0.5],[1,0.5]];portConstraint=eastwest;whiteSpace=wrap;html=1;" vertex="1" parent="LbzveFRJtcq-ufwjZvth-118">
          <mxGeometry y="26" width="140" height="26" as="geometry" />
        </mxCell>
        <mxCell id="LbzveFRJtcq-ufwjZvth-120" value="+列表视图" style="text;strokeColor=none;fillColor=none;align=left;verticalAlign=top;spacingLeft=4;spacingRight=4;overflow=hidden;rotatable=0;points=[[0,0.5],[1,0.5]];portConstraint=eastwest;whiteSpace=wrap;html=1;" vertex="1" parent="LbzveFRJtcq-ufwjZvth-118">
          <mxGeometry y="52" width="140" height="26" as="geometry" />
        </mxCell>
        <mxCell id="LbzveFRJtcq-ufwjZvth-121" value="" style="rounded=0;whiteSpace=wrap;html=1;" vertex="1" parent="1">
          <mxGeometry x="-140" y="105" width="870" height="160" as="geometry" />
        </mxCell>
        <mxCell id="LbzveFRJtcq-ufwjZvth-122" value="&lt;font size=&quot;1&quot; style=&quot;&quot;&gt;&lt;b style=&quot;font-size: 16px;&quot;&gt;列表视图表单&lt;/b&gt;&lt;/font&gt;" style="text;html=1;align=center;verticalAlign=middle;whiteSpace=wrap;rounded=0;" vertex="1" parent="1">
          <mxGeometry x="130" y="50" width="105" height="30" as="geometry" />
        </mxCell>
        <mxCell id="LbzveFRJtcq-ufwjZvth-123" value="" style="rounded=0;whiteSpace=wrap;html=1;" vertex="1" parent="1">
          <mxGeometry x="-130" y="115" width="100" height="30" as="geometry" />
        </mxCell>
        <mxCell id="LbzveFRJtcq-ufwjZvth-124" value="Approval number审批号" style="text;html=1;align=center;verticalAlign=middle;whiteSpace=wrap;rounded=0;" vertex="1" parent="1">
          <mxGeometry x="-130" y="120" width="100" height="20" as="geometry" />
        </mxCell>
        <mxCell id="LbzveFRJtcq-ufwjZvth-125" value="" style="rounded=0;whiteSpace=wrap;html=1;" vertex="1" parent="1">
          <mxGeometry x="10" y="115" width="300" height="30" as="geometry" />
        </mxCell>
        <mxCell id="LbzveFRJtcq-ufwjZvth-126" value="content内容：" style="text;html=1;align=center;verticalAlign=middle;whiteSpace=wrap;rounded=0;" vertex="1" parent="1">
          <mxGeometry x="10" y="115" width="80" height="30" as="geometry" />
        </mxCell>
        <mxCell id="LbzveFRJtcq-ufwjZvth-127" value="company审计公司，scope审计项目类型" style="text;html=1;align=center;verticalAlign=middle;whiteSpace=wrap;rounded=0;" vertex="1" parent="1">
          <mxGeometry x="75" y="115" width="230" height="30" as="geometry" />
        </mxCell>
        <mxCell id="LbzveFRJtcq-ufwjZvth-128" value="预定日期Startdate" style="rounded=0;whiteSpace=wrap;html=1;" vertex="1" parent="1">
          <mxGeometry x="330" y="115" width="120" height="30" as="geometry" />
        </mxCell>
        <mxCell id="LbzveFRJtcq-ufwjZvth-129" value="审核人Auditor" style="rounded=0;whiteSpace=wrap;html=1;" vertex="1" parent="1">
          <mxGeometry x="480" y="115" width="110" height="30" as="geometry" />
        </mxCell>
        <mxCell id="LbzveFRJtcq-ufwjZvth-130" value="planType计划类型" style="rounded=0;whiteSpace=wrap;html=1;" vertex="1" parent="1">
          <mxGeometry x="610" y="115" width="110" height="30" as="geometry" />
        </mxCell>
        <mxCell id="LbzveFRJtcq-ufwjZvth-131" value="点击审批号跳转到查看审计栏" style="text;html=1;align=center;verticalAlign=middle;whiteSpace=wrap;rounded=0;" vertex="1" parent="1">
          <mxGeometry x="-115" y="200" width="210" height="30" as="geometry" />
        </mxCell>
        <mxCell id="LbzveFRJtcq-ufwjZvth-132" value="" style="endArrow=classic;html=1;rounded=0;" edge="1" parent="1">
          <mxGeometry width="50" height="50" relative="1" as="geometry">
            <mxPoint x="-40" y="130" as="sourcePoint" />
            <mxPoint x="20" y="200" as="targetPoint" />
          </mxGeometry>
        </mxCell>
        <mxCell id="LbzveFRJtcq-ufwjZvth-133" value="" style="rounded=0;whiteSpace=wrap;html=1;" vertex="1" parent="1">
          <mxGeometry x="-290" y="560" width="1050" height="400" as="geometry" />
        </mxCell>
        <mxCell id="LbzveFRJtcq-ufwjZvth-134" value="导航栏" style="rounded=0;whiteSpace=wrap;html=1;" vertex="1" parent="1">
          <mxGeometry x="-290" y="560" width="140" height="60" as="geometry" />
        </mxCell>
        <mxCell id="LbzveFRJtcq-ufwjZvth-135" value="审核栏" style="swimlane;fontStyle=0;childLayout=stackLayout;horizontal=1;startSize=26;fillColor=none;horizontalStack=0;resizeParent=1;resizeParentMax=0;resizeLast=0;collapsible=1;marginBottom=0;html=1;" vertex="1" parent="1">
          <mxGeometry x="-290" y="620" width="140" height="52" as="geometry">
            <mxRectangle x="-280" y="550" width="80" height="30" as="alternateBounds" />
          </mxGeometry>
        </mxCell>
        <mxCell id="LbzveFRJtcq-ufwjZvth-137" value="+列表视图" style="text;strokeColor=none;fillColor=none;align=left;verticalAlign=top;spacingLeft=4;spacingRight=4;overflow=hidden;rotatable=0;points=[[0,0.5],[1,0.5]];portConstraint=eastwest;whiteSpace=wrap;html=1;" vertex="1" parent="LbzveFRJtcq-ufwjZvth-135">
          <mxGeometry y="26" width="140" height="26" as="geometry" />
        </mxCell>
        <mxCell id="LbzveFRJtcq-ufwjZvth-138" value="行动栏" style="swimlane;fontStyle=0;childLayout=stackLayout;horizontal=1;startSize=26;fillColor=none;horizontalStack=0;resizeParent=1;resizeParentMax=0;resizeLast=0;collapsible=1;marginBottom=0;html=1;" vertex="1" parent="1">
          <mxGeometry x="-290" y="672" width="140" height="78" as="geometry" />
        </mxCell>
        <mxCell id="LbzveFRJtcq-ufwjZvth-139" value="+新发现" style="text;strokeColor=none;fillColor=none;align=left;verticalAlign=top;spacingLeft=4;spacingRight=4;overflow=hidden;rotatable=0;points=[[0,0.5],[1,0.5]];portConstraint=eastwest;whiteSpace=wrap;html=1;" vertex="1" parent="LbzveFRJtcq-ufwjZvth-138">
          <mxGeometry y="26" width="140" height="26" as="geometry" />
        </mxCell>
        <mxCell id="LbzveFRJtcq-ufwjZvth-140" value="+列表视图" style="text;strokeColor=none;fillColor=none;align=left;verticalAlign=top;spacingLeft=4;spacingRight=4;overflow=hidden;rotatable=0;points=[[0,0.5],[1,0.5]];portConstraint=eastwest;whiteSpace=wrap;html=1;" vertex="1" parent="LbzveFRJtcq-ufwjZvth-138">
          <mxGeometry y="52" width="140" height="26" as="geometry" />
        </mxCell>
        <mxCell id="LbzveFRJtcq-ufwjZvth-141" value="报告栏" style="swimlane;fontStyle=0;childLayout=stackLayout;horizontal=1;startSize=26;fillColor=none;horizontalStack=0;resizeParent=1;resizeParentMax=0;resizeLast=0;collapsible=1;marginBottom=0;html=1;" vertex="1" parent="1">
          <mxGeometry x="-290" y="750" width="140" height="78" as="geometry" />
        </mxCell>
        <mxCell id="LbzveFRJtcq-ufwjZvth-142" value="+新报告&lt;span style=&quot;white-space: pre;&quot;&gt;&#x9;&lt;/span&gt;" style="text;strokeColor=none;fillColor=none;align=left;verticalAlign=top;spacingLeft=4;spacingRight=4;overflow=hidden;rotatable=0;points=[[0,0.5],[1,0.5]];portConstraint=eastwest;whiteSpace=wrap;html=1;" vertex="1" parent="LbzveFRJtcq-ufwjZvth-141">
          <mxGeometry y="26" width="140" height="26" as="geometry" />
        </mxCell>
        <mxCell id="LbzveFRJtcq-ufwjZvth-143" value="+列表视图" style="text;strokeColor=none;fillColor=none;align=left;verticalAlign=top;spacingLeft=4;spacingRight=4;overflow=hidden;rotatable=0;points=[[0,0.5],[1,0.5]];portConstraint=eastwest;whiteSpace=wrap;html=1;" vertex="1" parent="LbzveFRJtcq-ufwjZvth-141">
          <mxGeometry y="52" width="140" height="26" as="geometry" />
        </mxCell>
        <mxCell id="LbzveFRJtcq-ufwjZvth-144" value="危险日志" style="swimlane;fontStyle=0;childLayout=stackLayout;horizontal=1;startSize=26;fillColor=none;horizontalStack=0;resizeParent=1;resizeParentMax=0;resizeLast=0;collapsible=1;marginBottom=0;html=1;" vertex="1" parent="1">
          <mxGeometry x="-290" y="828" width="140" height="78" as="geometry" />
        </mxCell>
        <mxCell id="LbzveFRJtcq-ufwjZvth-145" value="+新危害" style="text;strokeColor=none;fillColor=none;align=left;verticalAlign=top;spacingLeft=4;spacingRight=4;overflow=hidden;rotatable=0;points=[[0,0.5],[1,0.5]];portConstraint=eastwest;whiteSpace=wrap;html=1;" vertex="1" parent="LbzveFRJtcq-ufwjZvth-144">
          <mxGeometry y="26" width="140" height="26" as="geometry" />
        </mxCell>
        <mxCell id="LbzveFRJtcq-ufwjZvth-146" value="+列表视图" style="text;strokeColor=none;fillColor=none;align=left;verticalAlign=top;spacingLeft=4;spacingRight=4;overflow=hidden;rotatable=0;points=[[0,0.5],[1,0.5]];portConstraint=eastwest;whiteSpace=wrap;html=1;" vertex="1" parent="LbzveFRJtcq-ufwjZvth-144">
          <mxGeometry y="52" width="140" height="26" as="geometry" />
        </mxCell>
        <mxCell id="LbzveFRJtcq-ufwjZvth-147" value="&lt;b style=&quot;border-color: var(--border-color); font-size: 14px;&quot;&gt;查看审计栏&lt;/b&gt;" style="text;html=1;align=center;verticalAlign=middle;whiteSpace=wrap;rounded=0;" vertex="1" parent="1">
          <mxGeometry x="45" y="585" width="90" height="30" as="geometry" />
        </mxCell>
        <mxCell id="LbzveFRJtcq-ufwjZvth-148" value="" style="rounded=0;whiteSpace=wrap;html=1;" vertex="1" parent="1">
          <mxGeometry x="-85" y="620" width="330" height="270" as="geometry" />
        </mxCell>
        <mxCell id="LbzveFRJtcq-ufwjZvth-149" value="" style="rounded=0;whiteSpace=wrap;html=1;" vertex="1" parent="1">
          <mxGeometry x="-40" y="645" width="100" height="30" as="geometry" />
        </mxCell>
        <mxCell id="LbzveFRJtcq-ufwjZvth-150" value="" style="rounded=0;whiteSpace=wrap;html=1;" vertex="1" parent="1">
          <mxGeometry x="-40" y="745" width="100" height="30" as="geometry" />
        </mxCell>
        <mxCell id="LbzveFRJtcq-ufwjZvth-151" value="scope审核类型" style="rounded=0;whiteSpace=wrap;html=1;" vertex="1" parent="1">
          <mxGeometry x="-40" y="695" width="100" height="30" as="geometry" />
        </mxCell>
        <mxCell id="LbzveFRJtcq-ufwjZvth-152" value="" style="rounded=0;whiteSpace=wrap;html=1;" vertex="1" parent="1">
          <mxGeometry x="100" y="745" width="100" height="30" as="geometry" />
        </mxCell>
        <mxCell id="LbzveFRJtcq-ufwjZvth-153" value="Auditor审核员" style="rounded=0;whiteSpace=wrap;html=1;" vertex="1" parent="1">
          <mxGeometry x="100" y="695" width="100" height="30" as="geometry" />
        </mxCell>
        <mxCell id="LbzveFRJtcq-ufwjZvth-154" value="" style="rounded=0;whiteSpace=wrap;html=1;" vertex="1" parent="1">
          <mxGeometry x="-40" y="795" width="100" height="30" as="geometry" />
        </mxCell>
        <mxCell id="LbzveFRJtcq-ufwjZvth-155" value="Lead Auditor审核主任" style="rounded=0;whiteSpace=wrap;html=1;" vertex="1" parent="1">
          <mxGeometry x="100" y="645" width="100" height="30" as="geometry" />
        </mxCell>
        <mxCell id="LbzveFRJtcq-ufwjZvth-156" value="" style="rounded=0;whiteSpace=wrap;html=1;" vertex="1" parent="1">
          <mxGeometry x="100" y="795" width="100" height="30" as="geometry" />
        </mxCell>
        <mxCell id="LbzveFRJtcq-ufwjZvth-157" value="审计清单project list" style="rounded=0;whiteSpace=wrap;html=1;" vertex="1" parent="1">
          <mxGeometry x="100" y="835" width="100" height="30" as="geometry" />
        </mxCell>
        <mxCell id="LbzveFRJtcq-ufwjZvth-158" value="Company审核公司" style="rounded=0;whiteSpace=wrap;html=1;" vertex="1" parent="1">
          <mxGeometry x="-40" y="835" width="100" height="30" as="geometry" />
        </mxCell>
        <mxCell id="LbzveFRJtcq-ufwjZvth-159" value="&lt;div style=&quot;text-indent: -24px;&quot;&gt;&lt;span style=&quot;background-color: initial;&quot;&gt;Approval number审批号&lt;/span&gt;&lt;/div&gt;" style="text;html=1;align=center;verticalAlign=middle;whiteSpace=wrap;rounded=0;" vertex="1" parent="1">
          <mxGeometry x="-20" y="630" width="80" height="55" as="geometry" />
        </mxCell>
        <mxCell id="LbzveFRJtcq-ufwjZvth-160" value="planType 计划类型" style="text;html=1;align=center;verticalAlign=middle;whiteSpace=wrap;rounded=0;" vertex="1" parent="1">
          <mxGeometry x="-20" y="745" width="60" height="30" as="geometry" />
        </mxCell>
        <mxCell id="LbzveFRJtcq-ufwjZvth-161" value="Department被审核部门" style="text;html=1;align=center;verticalAlign=middle;whiteSpace=wrap;rounded=0;" vertex="1" parent="1">
          <mxGeometry x="120" y="745" width="60" height="30" as="geometry" />
        </mxCell>
        <mxCell id="LbzveFRJtcq-ufwjZvth-162" value="EndDay预定结束日期" style="text;html=1;align=center;verticalAlign=middle;whiteSpace=wrap;rounded=0;" vertex="1" parent="1">
          <mxGeometry x="115" y="795" width="70" height="30" as="geometry" />
        </mxCell>
        <mxCell id="LbzveFRJtcq-ufwjZvth-163" value="StartDay预定开始日期" style="text;html=1;align=center;verticalAlign=middle;whiteSpace=wrap;rounded=0;" vertex="1" parent="1">
          <mxGeometry x="-25" y="795" width="70" height="30" as="geometry" />
        </mxCell>
        <mxCell id="LbzveFRJtcq-ufwjZvth-165" value="" style="rounded=1;whiteSpace=wrap;html=1;fontSize=16;" vertex="1" parent="1">
          <mxGeometry x="-1270" y="405" width="870" height="710" as="geometry" />
        </mxCell>
        <mxCell id="LbzveFRJtcq-ufwjZvth-166" value="操作流程" style="text;html=1;align=center;verticalAlign=middle;whiteSpace=wrap;rounded=0;fontSize=27;fontStyle=1" vertex="1" parent="1">
          <mxGeometry x="-970" y="450" width="310" height="30" as="geometry" />
        </mxCell>
        <mxCell id="LbzveFRJtcq-ufwjZvth-167" style="edgeStyle=orthogonalEdgeStyle;rounded=0;orthogonalLoop=1;jettySize=auto;html=1;exitX=0.5;exitY=1;exitDx=0;exitDy=0;entryX=0.5;entryY=0;entryDx=0;entryDy=0;fontSize=16;" edge="1" parent="1" source="LbzveFRJtcq-ufwjZvth-168" target="LbzveFRJtcq-ufwjZvth-171">
          <mxGeometry relative="1" as="geometry" />
        </mxCell>
        <mxCell id="LbzveFRJtcq-ufwjZvth-168" value="开始" style="rounded=1;whiteSpace=wrap;html=1;fontSize=16;" vertex="1" parent="1">
          <mxGeometry x="-1003" y="530" width="120" height="60" as="geometry" />
        </mxCell>
        <mxCell id="LbzveFRJtcq-ufwjZvth-202" style="edgeStyle=orthogonalEdgeStyle;rounded=0;orthogonalLoop=1;jettySize=auto;html=1;exitX=0.5;exitY=1;exitDx=0;exitDy=0;fontSize=16;" edge="1" parent="1" source="LbzveFRJtcq-ufwjZvth-171" target="LbzveFRJtcq-ufwjZvth-198">
          <mxGeometry relative="1" as="geometry" />
        </mxCell>
        <mxCell id="LbzveFRJtcq-ufwjZvth-205" style="edgeStyle=orthogonalEdgeStyle;rounded=0;orthogonalLoop=1;jettySize=auto;html=1;exitX=1;exitY=0.5;exitDx=0;exitDy=0;fontSize=16;" edge="1" parent="1" source="LbzveFRJtcq-ufwjZvth-171" target="LbzveFRJtcq-ufwjZvth-204">
          <mxGeometry relative="1" as="geometry" />
        </mxCell>
        <mxCell id="LbzveFRJtcq-ufwjZvth-171" value="是否是管理员" style="rhombus;whiteSpace=wrap;html=1;fontSize=16;" vertex="1" parent="1">
          <mxGeometry x="-1028" y="680" width="168" height="80" as="geometry" />
        </mxCell>
        <mxCell id="LbzveFRJtcq-ufwjZvth-172" value="登录" style="text;html=1;align=center;verticalAlign=middle;resizable=0;points=[];autosize=1;strokeColor=none;fillColor=none;fontSize=16;" vertex="1" parent="1">
          <mxGeometry x="-953" y="608" width="60" height="30" as="geometry" />
        </mxCell>
        <mxCell id="LbzveFRJtcq-ufwjZvth-174" value="否" style="text;html=1;align=center;verticalAlign=middle;resizable=0;points=[];autosize=1;strokeColor=none;fillColor=none;fontSize=16;" vertex="1" parent="1">
          <mxGeometry x="-827" y="690" width="40" height="30" as="geometry" />
        </mxCell>
        <mxCell id="LbzveFRJtcq-ufwjZvth-181" value="审计栏" style="rounded=0;whiteSpace=wrap;html=1;fontSize=16;" vertex="1" parent="1">
          <mxGeometry x="-573" y="1020" width="120" height="60" as="geometry" />
        </mxCell>
        <mxCell id="LbzveFRJtcq-ufwjZvth-182" style="edgeStyle=orthogonalEdgeStyle;rounded=0;orthogonalLoop=1;jettySize=auto;html=1;exitX=0.5;exitY=1;exitDx=0;exitDy=0;entryX=0.5;entryY=0;entryDx=0;entryDy=0;fontSize=16;" edge="1" parent="1" source="LbzveFRJtcq-ufwjZvth-193" target="LbzveFRJtcq-ufwjZvth-181">
          <mxGeometry relative="1" as="geometry">
            <mxPoint x="-518" y="1090" as="sourcePoint" />
          </mxGeometry>
        </mxCell>
        <mxCell id="LbzveFRJtcq-ufwjZvth-193" value="&lt;font style=&quot;font-size: 16px;&quot;&gt;列表视图&lt;/font&gt;" style="rounded=0;whiteSpace=wrap;html=1;fontSize=16;" vertex="1" parent="1">
          <mxGeometry x="-583" y="816" width="140" height="90" as="geometry" />
        </mxCell>
        <mxCell id="LbzveFRJtcq-ufwjZvth-194" value="点击审批号" style="text;html=1;align=center;verticalAlign=middle;resizable=0;points=[];autosize=1;strokeColor=none;fillColor=none;fontSize=16;" vertex="1" parent="1">
          <mxGeometry x="-523" y="930" width="100" height="30" as="geometry" />
        </mxCell>
        <mxCell id="LbzveFRJtcq-ufwjZvth-196" value="跳转到" style="text;html=1;align=center;verticalAlign=middle;resizable=0;points=[];autosize=1;strokeColor=none;fillColor=none;fontSize=16;" vertex="1" parent="1">
          <mxGeometry x="-508" y="970" width="70" height="30" as="geometry" />
        </mxCell>
        <mxCell id="LbzveFRJtcq-ufwjZvth-198" value="管理员界面" style="rounded=1;whiteSpace=wrap;html=1;fontSize=16;" vertex="1" parent="1">
          <mxGeometry x="-1003" y="846" width="120" height="60" as="geometry" />
        </mxCell>
        <mxCell id="LbzveFRJtcq-ufwjZvth-208" style="edgeStyle=orthogonalEdgeStyle;rounded=0;orthogonalLoop=1;jettySize=auto;html=1;fontSize=16;" edge="1" parent="1" source="LbzveFRJtcq-ufwjZvth-204" target="LbzveFRJtcq-ufwjZvth-193">
          <mxGeometry relative="1" as="geometry" />
        </mxCell>
        <mxCell id="LbzveFRJtcq-ufwjZvth-204" value="用户界面" style="rounded=1;whiteSpace=wrap;html=1;fontSize=16;" vertex="1" parent="1">
          <mxGeometry x="-745" y="690" width="130" height="60" as="geometry" />
        </mxCell>
        <mxCell id="LbzveFRJtcq-ufwjZvth-210" value="点击列表视图" style="text;html=1;align=center;verticalAlign=middle;whiteSpace=wrap;rounded=0;fontSize=16;" vertex="1" parent="1">
          <mxGeometry x="-573" y="691" width="103" height="30" as="geometry" />
        </mxCell>
        <mxCell id="LbzveFRJtcq-ufwjZvth-211" value="是" style="text;html=1;align=center;verticalAlign=middle;whiteSpace=wrap;rounded=0;" vertex="1" parent="1">
          <mxGeometry x="-943" y="786" width="60" height="30" as="geometry" />
        </mxCell>
      </root>
    </mxGraphModel>
  </diagram>
</mxfile>
